<?xml version="1.0" encoding="UTF-8"?>
<svg id="Logo_Icon_Off_V2" data-name="Logo Icon Off V2" xmlns="http://www.w3.org/2000/svg" viewBox="0 0 858.96 411">
  <defs>
    <style>
      .cls-1 {
        fill: #573689;
      }

      .cls-2 {
        fill: #c5a700;
      }
    </style>
  </defs>
  <ellipse class="cls-2" cx="328.38" cy="202.93" rx="155.73" ry="87.5"/>
  <path class="cls-1" d="M591.5,255.5h-55.14c-4.32,0-8.31,2.19-10.71,5.78-11.58,17.38-29.51,33.4-54.8,48.28-44.68,26.3-88.62,38.33-153.36,38.33-48.34,0-108.65-12.97-145.34-30.64-52.52-25.29-80.27-63.2-80.24-111.75-.02-48.56,27.72-86.46,80.24-111.75,36.69-17.67,97-30.64,145.34-30.64,64.74,0,99.06,0,154.89,35.4,0,0,30.2,17.72,50.91,48.58,2.37,3.53,6.35,5.62,10.6,5.62h57.61c7.08,0,12.82-5.74,12.82-12.82v-58.83c0-4.2-2.05-8.15-5.51-10.54C536.22,27.31,444.1,0,341.38,0,152.84,0,0,92.01,0,205.5s152.84,205.5,341.38,205.5c102.72,0,194.84-27.31,257.42-70.53,3.46-2.39,5.51-6.33,5.51-10.54v-61.61c0-7.08-5.74-12.82-12.82-12.82Z"/>
  <path class="cls-1" d="M662.56,107.74c-11.68-4.55-23.36,6.49-19.58,18.44,6.68,21.08,12.5,48.09,13.06,79.65.58,32.95-4.75,61.36-11.28,83.64-3.65,12.45,9.22,23.33,20.86,17.59,31.76-15.67,58.82-26.59,79.61-34.17,21.35-7.78,37.18-12.42,56.17-15.32,18.45-2.81,35.08-3.23,49-2.64,7.27.31,11.29-8.31,6.4-13.69-19.61-21.6-44.62-45.47-75.83-68.44-42.44-31.23-83.86-51.61-118.42-65.06Z"/>
</svg>