<?xml version="1.0" encoding="UTF-8"?>
<svg xmlns="http://www.w3.org/2000/svg" viewBox="0 0 1778.1 411">
  <defs>
    <style>
      .cls-1 {
        fill: #573689;
      }

      .cls-2 {
        fill: #c5a700;
      }
    </style>
  </defs>
  <g id="Logo_Icon_Off_V2" data-name="Logo Icon Off V2">
    <ellipse class="cls-2" cx="328.38" cy="202.93" rx="155.73" ry="87.5"/>
    <path class="cls-1" d="M591.5,255.5h-55.14c-4.32,0-8.31,2.19-10.71,5.78-11.58,17.38-29.51,33.4-54.8,48.28-44.68,26.3-88.62,38.33-153.36,38.33-48.34,0-108.65-12.97-145.34-30.64-52.52-25.29-80.27-63.2-80.24-111.75-.02-48.56,27.72-86.46,80.24-111.75,36.69-17.67,97-30.64,145.34-30.64,64.74,0,99.06,0,154.89,35.4,0,0,30.2,17.72,50.91,48.58,2.37,3.53,6.35,5.62,10.6,5.62h57.61c7.08,0,12.82-5.74,12.82-12.82v-58.83c0-4.2-2.05-8.15-5.51-10.54C536.22,27.31,444.1,0,341.38,0,152.84,0,0,92.01,0,205.5s152.84,205.5,341.38,205.5c102.72,0,194.84-27.31,257.42-70.53,3.46-2.39,5.51-6.33,5.51-10.54v-61.61c0-7.08-5.74-12.82-12.82-12.82Z"/>
    <path class="cls-1" d="M662.56,107.74c-11.68-4.55-23.36,6.49-19.58,18.44,6.68,21.08,12.5,48.09,13.06,79.65.58,32.95-4.75,61.36-11.28,83.64-3.65,12.45,9.22,23.33,20.86,17.59,31.76-15.67,58.82-26.59,79.61-34.17,21.35-7.78,37.18-12.42,56.17-15.32,18.45-2.81,35.08-3.23,49-2.64,7.27.31,11.29-8.31,6.4-13.69-19.61-21.6-44.62-45.47-75.83-68.44-42.44-31.23-83.86-51.61-118.42-65.06Z"/>
  </g>
  <g id="Nom">
    <g>
      <g>
        <path class="cls-1" d="M818.6,148.83c9.37,4.86,22.17,7.3,38.38,7.3,10.71,0,19.88-.53,27.49-1.59,7.61-1.06,15.29-2.78,23.05-5.18l-1.69-33.62c-6.77.56-13.61.99-20.51,1.27-6.91.28-15.65.42-26.22.42-5.22,0-8.88-.92-11-2.75-2.11-1.83-3.14-5.29-3.07-10.36.07-5.07.74-12.4,2.01-21.99,1.13-8.6,2.29-15.47,3.49-20.62,1.2-5.14,2.68-8.99,4.44-11.52,1.76-2.54,3.91-4.23,6.45-5.08,2.54-.85,5.71-1.27,9.52-1.27,6.48,0,12.12.04,16.92.11,4.79.07,9.41.11,13.85.11s9.2.07,14.27.21l5.29-33.2c-4.65-1.41-9.27-2.54-13.85-3.38-4.58-.85-9.59-1.48-15.01-1.9-5.43-.42-11.81-.63-19.14-.63-12.13,0-22.45,1.13-30.98,3.38-8.53,2.26-15.58,6.1-21.15,11.52-5.57,5.43-10.08,12.94-13.53,22.52-3.46,9.59-6.24,21.71-8.35,36.37-2.68,19.17-2.47,34.4.63,45.68,3.1,11.28,9.34,19.35,18.71,24.21Z"/>
        <path class="cls-1" d="M938.18,149.99c5.08,2.96,11.13,4.44,18.19,4.44,12.12,0,24.39-.14,36.79-.42,12.4-.28,23.47-1.06,33.2-2.33l.85-34.47h-48.21c-3.25,0-5.39-.63-6.45-1.9-1.06-1.27-1.45-3.45-1.16-6.56l15.01-101.08h-46.1l-15.65,112.71c-.99,6.49-.25,12.3,2.22,17.45,2.46,5.15,6.24,9.2,11.31,12.16Z"/>
        <path class="cls-1" d="M1098.46,154.33c8.46-.07,16.77-.25,24.95-.53,8.17-.28,15.65-.92,22.42-1.9l.85-32.56h-50.75c-3.1,0-5.29-.7-6.55-2.11-1.27-1.41-1.69-3.45-1.27-6.13l2.36-16.92h53.05l3.81-30.45h-52.61l1.86-13.32c.42-3.24,1.44-5.46,3.07-6.66,1.62-1.2,4.19-1.8,7.72-1.8h50.75l5.08-32.14c-6.49-.98-13.82-1.66-21.99-2.01-8.18-.35-16.67-.6-25.48-.74-8.81-.14-17.52-.21-26.12-.21-10.71,0-19.28,2.93-25.69,8.78-6.42,5.85-10.33,13.71-11.74,23.58l-10.57,75.49c-1.41,11.56.7,21.08,6.34,28.55,5.64,7.47,14.45,11.21,26.43,11.21,7.61,0,15.65-.04,24.11-.11Z"/>
        <path class="cls-1" d="M1200.18,153.59l19.24-111.65h3.38l4.02,73.59c.28,4.65,1.87,8.28,4.76,10.89,2.89,2.61,6.73,3.91,11.52,3.91h23.26c4.93,0,8.88-1.02,11.84-3.07,2.96-2.04,5.14-5.39,6.56-10.04l24.53-75.28h2.96l-11.42,111.65h41.24l13.11-129.2c.56-5.21-.5-9.3-3.17-12.26-2.68-2.96-6.63-4.44-11.84-4.44h-40.81c-4.79,0-8.71,1.02-11.74,3.07-3.03,2.04-5.18,5.46-6.45,10.26l-17.76,60.06c-.99,3.53-1.9,6.95-2.75,10.26-.85,3.31-1.69,7.01-2.54,11.1h-2.11c.28-3.81.49-7.51.63-11.1.14-3.59.07-7.15-.21-10.68l-2.54-57.94c-.14-4.79-1.62-8.49-4.44-11.1-2.82-2.61-6.63-3.91-11.42-3.91h-38.91c-5.22,0-9.06,1.2-11.52,3.59-2.47,2.4-4.2,6.21-5.18,11.42l-23.47,130.9h41.24Z"/>
        <path class="cls-1" d="M1398.74,154.43c7.61,0,15.65-.04,24.11-.11,8.46-.07,16.77-.25,24.95-.53,8.17-.28,15.65-.92,22.42-1.9l.85-32.56h-50.75c-3.1,0-5.29-.7-6.55-2.11-1.27-1.41-1.69-3.45-1.27-6.13l2.36-16.92h53.05l3.81-30.45h-52.61l1.86-13.32c.42-3.24,1.44-5.46,3.07-6.66,1.62-1.2,4.19-1.8,7.72-1.8h50.75l5.08-32.14c-6.49-.98-13.82-1.66-21.99-2.01-8.18-.35-16.67-.6-25.48-.74-8.81-.14-17.52-.21-26.12-.21-10.71,0-19.28,2.93-25.69,8.78-6.42,5.85-10.33,13.71-11.74,23.58l-10.57,75.49c-1.41,11.56.7,21.08,6.34,28.55,5.64,7.47,14.45,11.21,26.43,11.21Z"/>
        <path class="cls-1" d="M1587.57,69.85c-.57,4.09-.88,8.04-.95,11.84-.07,3.81.11,8.11.53,12.9h-1.69c-1.27-5.21-2.64-9.83-4.12-13.85-1.48-4.02-3.07-7.79-4.76-11.31l-24.53-47.58c-1.98-4.23-3.95-7.65-5.92-10.26-1.98-2.61-5.36-3.91-10.15-3.91h-15.23c-5.22,0-9.13,1.2-11.74,3.59-2.61,2.4-4.27,6.21-4.97,11.42l-18.4,130.9h42.08l9.09-61.32c.7-4.65,1.13-9.2,1.27-13.64.14-4.44.14-8.91,0-13.43h1.48c.98,4.37,2.04,8.64,3.17,12.79,1.13,4.16,2.54,7.93,4.23,11.31l24.95,50.12c1.97,4.37,3.98,7.82,6.03,10.36,2.04,2.54,5.46,3.81,10.26,3.81h15.22c5.21,0,9.13-1.2,11.74-3.59,2.61-2.4,4.26-6.2,4.97-11.42l18.4-130.9h-42.08l-8.88,62.17Z"/>
        <polygon class="cls-1" points="1778.1 7.68 1737.71 7.68 1691.82 7.68 1651.64 7.68 1646.78 41.93 1687.01 41.93 1671.31 153.59 1717.2 153.59 1732.89 41.93 1773.23 41.93 1778.1 7.68"/>
      </g>
      <g>
        <path class="cls-2" d="M976.45,366.32c-6.91.28-15.65.42-26.22.42-5.22,0-8.88-.92-11-2.75-2.11-1.83-3.14-5.29-3.07-10.36.07-5.08.74-12.4,2.01-21.99,1.13-8.6,2.29-15.47,3.49-20.62,1.2-5.14,2.68-8.99,4.44-11.52,1.76-2.54,3.91-4.23,6.45-5.08,2.54-.85,5.71-1.27,9.52-1.27,6.48,0,12.12.04,16.92.11,4.79.07,9.41.11,13.85.11s9.2.07,14.27.21l5.29-33.2c-4.65-1.41-9.27-2.54-13.85-3.38-4.58-.85-9.59-1.48-15.01-1.9-5.43-.42-11.81-.63-19.14-.63-12.13,0-22.45,1.13-30.98,3.38-8.53,2.26-15.58,6.1-21.15,11.53-5.57,5.43-10.08,12.94-13.53,22.52-3.46,9.59-6.24,21.71-8.35,36.37-2.68,19.17-2.47,34.4.63,45.68,3.1,11.28,9.34,19.35,18.71,24.21,9.37,4.86,22.17,7.29,38.38,7.29,10.71,0,19.88-.53,27.49-1.59,7.61-1.06,15.29-2.78,23.05-5.18l-1.69-33.62c-6.77.56-13.61.99-20.51,1.27Z"/>
        <path class="cls-1" d="M1122.36,260.58c-2.82-2.4-6.06-3.59-9.73-3.59h-41.45c-3.67,0-6.91.92-9.73,2.75-2.82,1.83-4.94,4.58-6.34,8.25l-56.25,134.91h47.58l11.47-30.87h39.79l2.45,30.87h45.89l-18.82-133.22c-.42-3.66-2.04-6.69-4.86-9.09ZM1070.32,338.61l11.86-31.93c1.13-2.82,2.01-5.6,2.64-8.35.63-2.75,1.16-5.25,1.59-7.51h5.92c-.14,2.68-.21,5.36-.21,8.04s.14,5.43.42,8.25l2.5,31.51h-24.73Z"/>
        <path class="cls-1" d="M1228.09,254.03c-9.87,0-18.54.67-26.01,2.01-7.47,1.34-13.75,3.53-18.82,6.55-5.08,3.03-9.06,7.23-11.95,12.58-2.89,5.36-4.83,12.05-5.82,20.09-.71,5.92-.5,11.56.63,16.92,1.13,5.36,3.73,10.33,7.82,14.91,4.09,4.58,10.22,8.92,18.4,13l26.64,13.11c1.97.99,3.52,1.87,4.65,2.64,1.13.78,1.87,1.59,2.22,2.43.35.85.39,1.9.11,3.17-.28,1.41-1.02,2.57-2.22,3.49-1.2.92-3.03,1.59-5.5,2.01-2.47.42-5.89.63-10.26.63-1.83,0-5.15-.03-9.94-.11-4.79-.07-10.68-.21-17.66-.42-6.98-.21-14.56-.39-22.73-.53l-4.23,31.93c11.13,2.82,21.89,4.76,32.25,5.81,10.36,1.06,18.57,1.59,24.64,1.59,14.09,0,25.34-1.24,33.73-3.7,8.39-2.46,14.7-6.84,18.93-13.11,4.23-6.27,6.98-14.98,8.25-26.12.85-7.19.67-13.5-.53-18.93-1.2-5.42-3.84-10.26-7.93-14.49-4.09-4.23-10.15-8.25-18.19-12.05l-24.53-11.63c-2.82-1.41-4.94-2.61-6.34-3.59-1.41-.98-2.29-1.97-2.64-2.96-.35-.99-.46-1.97-.32-2.96.28-1.13.74-2.08,1.37-2.85.63-.77,1.51-1.38,2.64-1.8,1.13-.42,2.54-.74,4.23-.95,1.69-.21,3.73-.32,6.13-.32,6.06,0,12.19.04,18.4.11,6.2.07,12.16.11,17.87.11s10.68.07,14.91.21l4.02-29.18c-8.18-2.82-16.88-4.79-26.12-5.92-9.23-1.13-17.94-1.69-26.12-1.69Z"/>
        <polygon class="cls-1" points="1420.31 256.99 1379.92 256.99 1334.03 256.99 1293.85 256.99 1288.99 291.25 1329.22 291.25 1313.52 402.9 1359.41 402.9 1375.1 291.25 1415.44 291.25 1420.31 256.99"/>
        <path class="cls-1" d="M1466.23,343.48h53.05l3.81-30.45h-52.61l1.86-13.32c.42-3.24,1.44-5.46,3.07-6.66,1.62-1.2,4.19-1.8,7.72-1.8h50.75l5.08-32.14c-6.49-.98-13.82-1.66-21.99-2.01-8.18-.35-16.67-.6-25.48-.74-8.81-.14-17.52-.21-26.12-.21-10.71,0-19.28,2.93-25.69,8.78-6.42,5.85-10.33,13.71-11.74,23.58l-10.57,75.49c-1.41,11.56.7,21.08,6.34,28.55,5.64,7.47,14.45,11.21,26.43,11.21,7.61,0,15.65-.04,24.11-.11,8.46-.07,16.77-.25,24.95-.53,8.17-.28,15.65-.92,22.42-1.9l.85-32.57h-50.75c-3.1,0-5.29-.7-6.55-2.11-1.27-1.41-1.69-3.45-1.27-6.13l2.36-16.92Z"/>
        <polygon class="cls-1" points="1640.22 256.99 1608.31 313.64 1593.28 256.99 1549.09 256.99 1571.08 328.46 1524.98 402.9 1573.61 402.9 1607.62 342.84 1623.52 402.9 1668.56 402.9 1643.82 328.46 1686.96 256.99 1640.22 256.99"/>
      </g>
    </g>
  </g>
</svg>